<svg width="301" height="99" viewBox="0 0 301 99" fill="none" xmlns="http://www.w3.org/2000/svg">
<g filter="url(#filter0_i_552_305)">
<rect x="118.227" width="48" height="48.5783" rx="6" transform="rotate(38.4776 118.227 0)" fill="#D9D9D9"/>
</g>
<circle cx="112.657" cy="35.1922" r="5.39192" transform="rotate(38.4776 112.657 35.1922)" fill="#24A5A4"/>
<circle cx="131.597" cy="33.0262" r="5.39192" transform="rotate(38.4776 131.597 33.0262)" fill="#24A5A4"/>
<path d="M0.308594 56.2V53.08H18.1966C21.2126 53.08 23.9513 53.496 26.4126 54.328C28.9086 55.1253 31.0579 56.3213 32.8606 57.916C34.6979 59.476 36.1019 61.4 37.0726 63.688C38.0779 65.976 38.5806 68.5587 38.5806 71.436C38.5806 74.3133 38.0779 76.896 37.0726 79.184C36.1019 81.472 34.6979 83.4307 32.8606 85.06C31.0579 86.6547 28.9086 87.8853 26.4126 88.752C23.9513 89.584 21.2126 90 18.1966 90H0.308594V86.88H0.880594C1.74726 86.88 2.47526 86.7587 3.06459 86.516C3.65393 86.2733 3.94859 85.7707 3.94859 85.008V58.072C3.94859 57.3787 3.65393 56.8933 3.06459 56.616C2.47526 56.3387 1.74726 56.2 0.880594 56.2H0.308594ZM17.8846 56.772H13.9846V86.308H17.8846C19.4099 86.308 20.7966 85.996 22.0446 85.372C23.2926 84.7133 24.3673 83.76 25.2686 82.512C26.1699 81.2293 26.8633 79.6693 27.3486 77.832C27.8339 75.9947 28.0766 73.8627 28.0766 71.436C28.0766 69.0093 27.8339 66.8947 27.3486 65.092C26.8633 63.2547 26.1699 61.7293 25.2686 60.516C24.3673 59.268 23.2926 58.332 22.0446 57.708C20.7966 57.084 19.4099 56.772 17.8846 56.772Z" fill="#24A5A4"/>
<path d="M49.124 59.58C47.564 59.58 46.316 59.1987 45.38 58.436C44.444 57.6733 43.976 56.616 43.976 55.264C43.976 53.912 44.444 52.872 45.38 52.144C46.316 51.3813 47.564 51 49.124 51C50.7187 51 51.9667 51.3813 52.868 52.144C53.804 52.872 54.272 53.912 54.272 55.264C54.272 56.616 53.804 57.6733 52.868 58.436C51.9667 59.1987 50.7187 59.58 49.124 59.58ZM54.012 63.272V85.528C54.012 86.152 54.272 86.568 54.792 86.776C55.312 86.984 55.9533 87.088 56.716 87.088H56.768V90H41.74V87.088H41.792C42.5547 87.088 43.196 86.984 43.716 86.776C44.236 86.568 44.496 86.152 44.496 85.528V68.16C44.496 67.6053 44.3053 67.224 43.924 67.016C43.5773 66.7733 42.988 66.5653 42.156 66.392L41.688 66.288V63.272H54.012Z" fill="#24A5A4"/>
<path d="M75.8041 86.724C77.0521 86.724 78.1441 86.4467 79.0801 85.892C80.0161 85.3027 80.8134 84.592 81.4721 83.76C82.1654 82.8933 82.7547 82.044 83.2401 81.212L86.1001 83.292C85.3721 84.6787 84.4707 85.9267 83.3961 87.036C82.3561 88.1453 81.0907 89.012 79.6001 89.636C78.1094 90.2253 76.3067 90.52 74.1921 90.52C71.3147 90.52 68.7494 89.9653 66.4961 88.856C64.2427 87.712 62.4574 86.1 61.1401 84.02C59.8574 81.94 59.2161 79.4787 59.2161 76.636C59.2161 73.7587 59.8574 71.2973 61.1401 69.252C62.4227 67.172 64.2081 65.5773 66.4961 64.468C68.8187 63.324 71.5401 62.752 74.6601 62.752C76.6014 62.752 78.3001 62.9253 79.7561 63.272C81.2121 63.6187 82.4081 64.0347 83.3441 64.52C84.3147 64.9707 85.0254 65.3867 85.4761 65.768V72.632H78.3001V65.924C78.7161 65.9587 79.0454 66.08 79.2881 66.288C79.5654 66.496 79.7561 66.756 79.8601 67.068C79.9987 67.3453 80.0507 67.64 80.0161 67.952C79.9814 68.2293 79.8774 68.472 79.7041 68.68C79.2881 68.0213 78.6987 67.484 77.9361 67.068C77.1734 66.6173 76.2547 66.392 75.1801 66.392C73.8627 66.392 72.7361 66.7907 71.8001 67.588C70.8987 68.3853 70.2054 69.5467 69.7201 71.072C69.2347 72.5973 68.9921 74.452 68.9921 76.636C68.9921 78.2653 69.1481 79.704 69.4601 80.952C69.7721 82.2 70.2054 83.2573 70.7601 84.124C71.3494 84.9907 72.0601 85.6493 72.8921 86.1C73.7587 86.516 74.7294 86.724 75.8041 86.724Z" fill="#24A5A4"/>
<path d="M98.3895 76.74C98.3895 78.3693 98.5282 79.808 98.8055 81.056C99.0829 82.304 99.5162 83.344 100.106 84.176C100.695 85.008 101.44 85.632 102.342 86.048C103.243 86.464 104.283 86.672 105.462 86.672C106.71 86.672 107.784 86.4293 108.686 85.944C109.622 85.4587 110.436 84.8347 111.13 84.072C111.823 83.3093 112.395 82.5293 112.846 81.732L115.81 83.812C115.116 85.1293 114.232 86.308 113.158 87.348C112.118 88.3533 110.835 89.1333 109.31 89.688C107.819 90.2427 106.034 90.52 103.954 90.52C100.938 90.52 98.2855 89.9653 95.9975 88.856C93.7095 87.7467 91.9415 86.152 90.6935 84.072C89.4455 81.992 88.8215 79.5307 88.8215 76.688C88.8215 73.9147 89.4282 71.488 90.6415 69.408C91.8895 67.2933 93.5882 65.664 95.7375 64.52C97.8869 63.3413 100.314 62.752 103.018 62.752C105.167 62.752 107.056 63.0813 108.686 63.74C110.35 64.364 111.736 65.3 112.846 66.548C113.99 67.796 114.856 69.356 115.446 71.228C116.035 73.1 116.33 75.284 116.33 77.78H96.5175V74.4H108.634L107.49 75.7C107.455 73.8973 107.351 72.4067 107.178 71.228C107.004 70.0147 106.744 69.0613 106.398 68.368C106.051 67.6747 105.618 67.172 105.098 66.86C104.578 66.548 103.954 66.392 103.226 66.392C102.498 66.392 101.839 66.5827 101.25 66.964C100.66 67.3453 100.14 67.952 99.6895 68.784C99.2735 69.616 98.9442 70.6907 98.7015 72.008C98.4935 73.3253 98.3895 74.9027 98.3895 76.74Z" fill="#24A5A4"/>
<path d="M117.469 94.004H142.273V98.164H117.469V94.004Z" fill="#24A5A4"/>
<path d="M162.439 53.08C164.623 53.08 166.564 53.288 168.262 53.704C169.961 54.12 171.365 54.7267 172.475 55.524C173.619 56.2867 174.485 57.2227 175.075 58.332C175.664 59.4413 175.958 60.672 175.958 62.024C175.958 63.896 175.438 65.4733 174.398 66.756C173.393 68.0387 171.989 69.0093 170.187 69.668C168.419 70.3267 166.339 70.708 163.947 70.812L166.027 69.772V71.228L164.311 70.136C166.945 70.2053 169.251 70.604 171.227 71.332C173.203 72.06 174.745 73.1173 175.855 74.504C176.964 75.8907 177.519 77.5893 177.519 79.6C177.519 81.1947 177.189 82.6333 176.531 83.916C175.907 85.1987 174.971 86.308 173.723 87.244C172.509 88.1453 170.984 88.8387 169.146 89.324C167.344 89.7747 165.281 90 162.958 90H143.562V86.88H144.083C144.984 86.88 145.712 86.7587 146.266 86.516C146.856 86.2733 147.15 85.788 147.15 85.06V58.02C147.15 57.292 146.856 56.8067 146.266 56.564C145.712 56.3213 144.984 56.2 144.083 56.2H143.562V53.08H162.439ZM155.574 68.992H159.995C161.451 68.992 162.612 68.7493 163.479 68.264C164.345 67.7787 164.969 67.0507 165.35 66.08C165.732 65.1093 165.923 63.948 165.923 62.596C165.923 61.244 165.715 60.1347 165.299 59.268C164.883 58.4013 164.258 57.7427 163.426 57.292C162.594 56.8413 161.555 56.616 160.307 56.616H157.238V86.464H160.671C162.127 86.464 163.34 86.2213 164.311 85.736C165.316 85.216 166.061 84.4187 166.547 83.344C167.032 82.2693 167.275 80.9 167.275 79.236C167.275 77.8147 167.032 76.6013 166.547 75.596C166.096 74.5907 165.368 73.8107 164.363 73.256C163.357 72.7013 162.023 72.424 160.359 72.424H155.574V68.992Z" fill="#24A5A4"/>
<path d="M211.61 76.636C211.61 79.3747 210.986 81.8013 209.738 83.916C208.49 85.996 206.74 87.6253 204.486 88.804C202.233 89.948 199.546 90.52 196.426 90.52C193.376 90.52 190.706 89.948 188.418 88.804C186.165 87.6253 184.414 85.996 183.166 83.916C181.918 81.8013 181.294 79.3747 181.294 76.636C181.294 74.5907 181.641 72.7187 182.334 71.02C183.062 69.2867 184.085 67.8133 185.402 66.6C186.754 65.352 188.349 64.3987 190.186 63.74C192.058 63.0813 194.138 62.752 196.426 62.752C198.749 62.752 200.829 63.0813 202.666 63.74C204.538 64.3987 206.133 65.352 207.45 66.6C208.802 67.8133 209.825 69.2867 210.518 71.02C211.246 72.7187 211.61 74.5907 211.61 76.636ZM191.07 76.636C191.07 78.924 191.278 80.848 191.694 82.408C192.11 83.9333 192.717 85.0773 193.514 85.84C194.312 86.6027 195.282 86.984 196.426 86.984C197.605 86.984 198.593 86.6027 199.39 85.84C200.188 85.0773 200.794 83.9333 201.21 82.408C201.626 80.848 201.834 78.924 201.834 76.636C201.834 74.3133 201.626 72.4067 201.21 70.916C200.794 69.3907 200.188 68.264 199.39 67.536C198.593 66.7733 197.605 66.392 196.426 66.392C195.282 66.392 194.312 66.7733 193.514 67.536C192.717 68.264 192.11 69.3907 191.694 70.916C191.278 72.4067 191.07 74.3133 191.07 76.636Z" fill="#24A5A4"/>
<path d="M231.977 73.932L231.925 76.844C230.746 76.9827 229.689 77.1733 228.753 77.416C227.817 77.6587 227.002 77.9707 226.309 78.352C225.616 78.6987 225.044 79.0973 224.593 79.548C224.177 79.9987 223.848 80.5187 223.605 81.108C223.397 81.6627 223.293 82.2867 223.293 82.98C223.293 83.812 223.414 84.5053 223.657 85.06C223.934 85.58 224.316 85.9787 224.801 86.256C225.286 86.5333 225.858 86.672 226.517 86.672C227.349 86.672 228.077 86.464 228.701 86.048C229.36 85.5973 229.949 84.9907 230.469 84.228C230.989 83.4307 231.44 82.4947 231.821 81.42L232.029 84.54C231.544 85.788 230.902 86.8627 230.105 87.764C229.308 88.6653 228.32 89.3587 227.141 89.844C225.997 90.2947 224.662 90.52 223.137 90.52C221.369 90.52 219.826 90.26 218.509 89.74C217.226 89.1853 216.221 88.388 215.493 87.348C214.8 86.2733 214.453 84.956 214.453 83.396C214.453 81.9747 214.817 80.744 215.545 79.704C216.308 78.6293 217.417 77.728 218.873 77C220.364 76.272 222.201 75.6653 224.385 75.18C226.569 74.6947 229.1 74.2787 231.977 73.932ZM231.353 90V84.904L230.781 84.956V70.448C230.781 69.4427 230.642 68.6453 230.365 68.056C230.088 67.4667 229.654 67.0333 229.065 66.756C228.51 66.4787 227.8 66.34 226.933 66.34C225.685 66.34 224.645 66.6 223.813 67.12C222.981 67.64 222.357 68.2813 221.941 69.044C221.698 68.6973 221.56 68.368 221.525 68.056C221.525 67.744 221.594 67.4493 221.733 67.172C221.906 66.8947 222.149 66.652 222.461 66.444C222.773 66.236 223.154 66.0973 223.605 66.028V71.8H216.325V66.184C216.845 65.8027 217.608 65.352 218.613 64.832C219.618 64.2773 220.901 63.792 222.461 63.376C224.056 62.96 225.893 62.752 227.973 62.752C229.741 62.752 231.353 62.9253 232.809 63.272C234.3 63.6187 235.582 64.1733 236.657 64.936C237.732 65.664 238.564 66.6173 239.153 67.796C239.742 68.94 240.037 70.3267 240.037 71.956V85.372C240.037 85.7187 240.124 85.996 240.297 86.204C240.505 86.412 240.8 86.568 241.181 86.672C241.562 86.776 242.013 86.8627 242.533 86.932L242.793 86.984V90H231.353Z" fill="#24A5A4"/>
<path d="M265.774 63.168V71.176C265.531 71.1067 265.237 71.0373 264.89 70.968C264.543 70.8987 264.179 70.8467 263.798 70.812C263.417 70.7773 263.035 70.76 262.654 70.76C261.891 70.76 261.163 70.8467 260.47 71.02C259.811 71.1587 259.187 71.384 258.598 71.696C258.043 72.008 257.523 72.4413 257.038 72.996C256.587 73.516 256.171 74.1573 255.79 74.92V72.216C256.275 70.4133 256.847 68.8187 257.506 67.432C258.165 66.0107 259.014 64.9013 260.054 64.104C261.094 63.3067 262.359 62.908 263.85 62.908C264.301 62.908 264.682 62.9427 264.994 63.012C265.341 63.0467 265.601 63.0987 265.774 63.168ZM244.61 90V87.088H244.714C245.477 87.088 246.118 86.984 246.638 86.776C247.158 86.568 247.418 86.152 247.418 85.528V68.16C247.418 67.7787 247.331 67.484 247.158 67.276C247.019 67.068 246.777 66.912 246.43 66.808C246.083 66.6693 245.633 66.5307 245.078 66.392L244.61 66.288V63.272H256.31V71.748L256.882 71.228V86.204C256.882 86.4467 257.055 86.6373 257.402 86.776C257.783 86.88 258.234 86.9667 258.754 87.036C259.274 87.0707 259.742 87.088 260.158 87.088H260.678V90H244.61Z" fill="#24A5A4"/>
<path d="M297.716 85.372C297.716 85.9267 297.924 86.308 298.34 86.516C298.79 86.6893 299.414 86.828 300.212 86.932L300.472 86.984V90H288.772V83.812L288.2 84.28V56.46C288.2 56.0787 288.113 55.784 287.94 55.576C287.766 55.368 287.489 55.212 287.108 55.108C286.726 54.9693 286.258 54.848 285.704 54.744L285.236 54.64V51.572H297.716V85.372ZM280.556 62.752C282.22 62.752 283.658 63.0293 284.872 63.584C286.085 64.104 287.142 64.9013 288.044 65.976C288.98 67.0507 289.794 68.4027 290.488 70.032L290.02 74.036C289.292 72.476 288.598 71.1933 287.94 70.188C287.281 69.148 286.57 68.3853 285.808 67.9C285.08 67.38 284.213 67.12 283.208 67.12C282.306 67.12 281.526 67.3453 280.868 67.796C280.244 68.2467 279.706 68.888 279.256 69.72C278.84 70.552 278.528 71.5747 278.32 72.788C278.112 74.0013 278.008 75.388 278.008 76.948C278.008 78.4387 278.112 79.756 278.32 80.9C278.528 82.0093 278.822 82.9627 279.204 83.76C279.62 84.5227 280.122 85.0947 280.712 85.476C281.336 85.8573 282.046 86.048 282.844 86.048C283.849 86.048 284.716 85.7707 285.444 85.216C286.206 84.6613 286.934 83.8293 287.628 82.72C288.356 81.576 289.118 80.1547 289.916 78.456L290.332 82.772C289.465 84.4707 288.564 85.9093 287.628 87.088C286.692 88.232 285.634 89.0987 284.456 89.688C283.277 90.2427 281.838 90.52 280.14 90.52C277.748 90.52 275.668 89.9653 273.9 88.856C272.132 87.712 270.745 86.1173 269.74 84.072C268.734 82.0267 268.232 79.652 268.232 76.948C268.232 74.14 268.752 71.6787 269.792 69.564C270.866 67.4147 272.322 65.7507 274.16 64.572C276.032 63.3587 278.164 62.752 280.556 62.752Z" fill="#24A5A4"/>
<defs>
<filter id="filter0_i_552_305" x="86.4316" y="2.42969" width="66.9414" height="67.0361" filterUnits="userSpaceOnUse" color-interpolation-filters="sRGB">
<feFlood flood-opacity="0" result="BackgroundImageFix"/>
<feBlend mode="normal" in="SourceGraphic" in2="BackgroundImageFix" result="shape"/>
<feColorMatrix in="SourceAlpha" type="matrix" values="0 0 0 0 0 0 0 0 0 0 0 0 0 0 0 0 0 0 127 0" result="hardAlpha"/>
<feMorphology radius="2" operator="erode" in="SourceAlpha" result="effect1_innerShadow_552_305"/>
<feOffset dx="-4" dy="4"/>
<feGaussianBlur stdDeviation="5"/>
<feComposite in2="hardAlpha" operator="arithmetic" k2="-1" k3="1"/>
<feColorMatrix type="matrix" values="0 0 0 0 0 0 0 0 0 0 0 0 0 0 0 0 0 0 0.25 0"/>
<feBlend mode="normal" in2="shape" result="effect1_innerShadow_552_305"/>
</filter>
</defs>
</svg>
