<svg width="84" height="27" viewBox="0 0 84 27" fill="none" xmlns="http://www.w3.org/2000/svg">
<path d="M10.045 1.125C11.605 1.125 12.8 1.405 13.63 1.965C14.46 2.515 14.875 3.375 14.875 4.545C14.875 5.275 14.705 5.87 14.365 6.33C14.2302 6.51384 14.0703 6.68182 13.8854 6.83395C13.4552 7.188 13.2728 7.83347 13.585 8.295V8.295C13.815 8.625 14.04 8.975 14.26 9.345C14.49 9.705 14.71 10.085 14.92 10.485V10.485C15.2052 11.0146 14.8117 11.64 14.2102 11.64H13.4667C13.1045 11.64 12.7708 11.4439 12.5925 11.1285C12.4946 10.9553 12.3954 10.7808 12.295 10.605C12.105 10.255 11.905 9.915 11.695 9.585C11.495 9.255 11.295 8.945 11.095 8.655C10.9714 8.46965 10.8479 8.29575 10.7243 8.13331C10.583 7.94751 10.36 7.845 10.1266 7.845V7.845C9.69217 7.845 9.34 8.19717 9.34 8.63158V10.64C9.34 11.1923 8.89228 11.64 8.34 11.64H8C7.44772 11.64 7 11.1923 7 10.64V2.21796C7 1.73986 7.33805 1.32466 7.81212 1.26277C8.063 1.23001 8.31729 1.20409 8.575 1.185C9.125 1.145 9.615 1.125 10.045 1.125ZM10.18 3.12C10.01 3.12 9.855 3.125 9.715 3.135V3.135C9.50299 3.15131 9.34 3.32856 9.34 3.5412V5.325C9.34 5.68951 9.63549 5.985 10 5.985V5.985C10.88 5.985 11.51 5.875 11.89 5.655C12.27 5.435 12.46 5.06 12.46 4.53C12.46 4.02 12.265 3.66 11.875 3.45C11.495 3.23 10.93 3.12 10.18 3.12Z" fill="#3A3A3A"/>
<path d="M16.099 7.755C16.099 7.055 16.204 6.445 16.414 5.925C16.634 5.395 16.919 4.955 17.269 4.605C17.619 4.255 18.019 3.99 18.469 3.81C18.929 3.63 19.399 3.54 19.879 3.54C20.999 3.54 21.884 3.885 22.534 4.575C23.184 5.255 23.509 6.26 23.509 7.59C23.509 7.72 23.504 7.865 23.494 8.025V8.025C23.4788 8.25404 23.2875 8.43 23.0579 8.43H19.5086C18.9136 8.43 18.4411 9.00482 18.8844 9.40178C18.9325 9.44484 18.984 9.48592 19.039 9.525C19.419 9.795 19.929 9.93 20.569 9.93C20.979 9.93 21.379 9.895 21.769 9.825V9.825C22.2748 9.72385 22.8259 10.0352 22.91 10.5441L22.9603 10.8486C23.0101 11.1497 22.8563 11.4473 22.564 11.535V11.535C22.364 11.595 22.139 11.645 21.889 11.685C21.649 11.735 21.389 11.775 21.109 11.805C20.829 11.835 20.549 11.85 20.269 11.85C19.559 11.85 18.939 11.745 18.409 11.535C17.889 11.325 17.454 11.04 17.104 10.68C16.764 10.31 16.509 9.875 16.339 9.375C16.179 8.875 16.099 8.335 16.099 7.755ZM20.7825 6.9C21.0904 6.9 21.3414 6.63717 21.244 6.345V6.345C21.194 6.165 21.109 6.005 20.989 5.865C20.879 5.725 20.734 5.61 20.554 5.52C20.384 5.43 20.169 5.385 19.909 5.385C19.659 5.385 19.444 5.43 19.264 5.52C19.084 5.6 18.934 5.71 18.814 5.85C18.694 5.99 18.599 6.155 18.529 6.345V6.345C18.4341 6.62985 18.6656 6.9 18.9659 6.9H20.7825Z" fill="#3A3A3A"/>
<path d="M28.2488 10.08C28.4688 10.08 28.6788 10.075 28.8788 10.065V10.065C29.1568 10.0511 29.3588 9.81599 29.3588 9.53765V8.73459C29.3588 8.49527 29.1916 8.29143 28.9538 8.265V8.265C28.7738 8.245 28.6088 8.235 28.4588 8.235C28.2488 8.235 28.0488 8.25 27.8588 8.28C27.6788 8.3 27.5188 8.345 27.3788 8.415C27.2388 8.485 27.1288 8.58 27.0488 8.7C26.9688 8.82 26.9288 8.97 26.9288 9.15C26.9288 9.5 27.0438 9.745 27.2738 9.885C27.5138 10.015 27.8388 10.08 28.2488 10.08ZM28.0688 3.54C28.7288 3.54 29.2788 3.615 29.7188 3.765C30.1588 3.915 30.5088 4.13 30.7688 4.41C31.0388 4.69 31.2288 5.03 31.3388 5.43C31.4488 5.83 31.5038 6.275 31.5038 6.765V10.6101C31.5038 11.08 31.1763 11.486 30.7132 11.5656C30.5465 11.5942 30.3651 11.624 30.1688 11.655C29.5988 11.755 28.9088 11.805 28.0988 11.805C27.5888 11.805 27.1238 11.76 26.7038 11.67C26.2938 11.58 25.9388 11.435 25.6388 11.235C25.3388 11.025 25.1088 10.755 24.9488 10.425C24.7888 10.095 24.7088 9.69 24.7088 9.21C24.7088 8.75 24.7988 8.36 24.9788 8.04C25.1688 7.72 25.4188 7.465 25.7288 7.275C26.0388 7.085 26.3938 6.95 26.7938 6.87C27.1938 6.78 27.6088 6.735 28.0388 6.735C28.3288 6.735 28.5838 6.75 28.8038 6.78C28.9352 6.79143 29.052 6.80612 29.154 6.82408C29.2576 6.84232 29.3588 6.76524 29.3588 6.66V6.66C29.3588 6.28 29.2438 5.975 29.0138 5.745C28.7838 5.515 28.3838 5.4 27.8138 5.4C27.4338 5.4 27.0588 5.43 26.6888 5.49V5.49C26.1823 5.55844 25.6542 5.24395 25.5743 4.73918L25.5212 4.40385C25.4768 4.12338 25.6459 3.8535 25.9238 3.795V3.795C26.1238 3.745 26.3388 3.705 26.5688 3.675C26.7988 3.635 27.0388 3.605 27.2888 3.585C27.5488 3.555 27.8088 3.54 28.0688 3.54Z" fill="#3A3A3A"/>
<path d="M33.1498 7.695C33.1498 7.125 33.2398 6.59 33.4198 6.09C33.6098 5.58 33.8798 5.14 34.2298 4.77C34.5798 4.39 35.0048 4.09 35.5048 3.87C36.0048 3.65 36.5748 3.54 37.2148 3.54C37.6348 3.54 38.0198 3.58 38.3698 3.66C38.4564 3.67733 38.5425 3.6968 38.6279 3.71842C39.076 3.83184 39.3035 4.30642 39.1869 4.75376L39.1067 5.06157C39.0096 5.43434 38.6094 5.6399 38.2348 5.55V5.55C37.9848 5.49 37.7048 5.46 37.3948 5.46C36.7348 5.46 36.2398 5.665 35.9098 6.075C35.5898 6.485 35.4298 7.025 35.4298 7.695C35.4298 8.405 35.5798 8.955 35.8798 9.345C36.1898 9.735 36.7248 9.93 37.4848 9.93C37.7548 9.93 38.0448 9.905 38.3548 9.855V9.855C38.8039 9.78257 39.2836 10.044 39.3608 10.4923L39.4032 10.7384C39.4744 11.1523 39.2506 11.5634 38.8429 11.664C38.7497 11.6871 38.652 11.709 38.5498 11.73C38.1598 11.81 37.7298 11.85 37.2598 11.85C36.5398 11.85 35.9198 11.745 35.3998 11.535C34.8798 11.315 34.4498 11.02 34.1098 10.65C33.7798 10.28 33.5348 9.845 33.3748 9.345C33.2248 8.835 33.1498 8.285 33.1498 7.695Z" fill="#3A3A3A"/>
<path d="M42.0248 11.64C41.4725 11.64 41.0248 11.1923 41.0248 10.64V1.21182C41.0248 0.720916 41.3811 0.302606 41.8658 0.224541L42.1008 0.186688C42.7087 0.0887715 43.2598 0.558228 43.2598 1.17396V3.19371C43.2598 3.48214 43.5456 3.69442 43.8298 3.645V3.645C44.0698 3.595 44.2998 3.57 44.5198 3.57C45.1598 3.57 45.6898 3.66 46.1098 3.84C46.5398 4.01 46.8798 4.255 47.1298 4.575C47.3898 4.895 47.5698 5.275 47.6698 5.715C47.7798 6.155 47.8348 6.645 47.8348 7.185V10.64C47.8348 11.1923 47.3871 11.64 46.8348 11.64H46.5998C46.0475 11.64 45.5998 11.1923 45.5998 10.64V7.455C45.5998 6.735 45.5048 6.225 45.3148 5.925C45.1348 5.625 44.7948 5.475 44.2948 5.475C44.0948 5.475 43.9048 5.495 43.7248 5.535V5.535C43.4468 5.58406 43.2598 5.83462 43.2598 6.11692V10.64C43.2598 11.1923 42.8121 11.64 42.2598 11.64H42.0248Z" fill="#3A3A3A"/>
<path d="M54.2078 8.58C54.2078 8.29 54.1428 8.035 54.0128 7.815C53.8828 7.585 53.6578 7.395 53.3378 7.245C53.0178 7.095 52.5878 6.98 52.0478 6.9C51.7777 6.85999 51.4726 6.82998 51.1325 6.80998C50.5347 6.77483 50.0702 6.25728 50.1298 5.6614C50.1863 5.0947 50.2357 4.52256 50.2778 3.945C50.322 3.33843 50.3603 2.75582 50.3925 2.19715C50.4233 1.66425 50.8625 1.245 51.3963 1.245H55.1303C55.6481 1.245 56.0678 1.66473 56.0678 2.1825V2.1825C56.0678 2.70027 55.6481 3.12 55.1303 3.12H53.2638C52.7331 3.12 52.2968 3.53483 52.252 4.06367C52.249 4.09922 52.2459 4.13466 52.2428 4.17V4.17C52.2141 4.64409 52.5666 5.062 53.0359 5.13529C54.0619 5.29554 54.8476 5.60878 55.3928 6.075C56.0928 6.655 56.4428 7.465 56.4428 8.505C56.4428 8.985 56.3578 9.43 56.1878 9.84C56.0178 10.25 55.7628 10.605 55.4228 10.905C55.0828 11.205 54.6528 11.44 54.1328 11.61C53.6228 11.78 53.0228 11.865 52.3328 11.865C52.0628 11.865 51.7778 11.845 51.4778 11.805C51.1878 11.775 50.9028 11.73 50.6228 11.67C50.3528 11.62 50.1078 11.565 49.8878 11.505V11.505C49.5805 11.4212 49.4257 11.1071 49.4939 10.796L49.5589 10.5002C49.6747 9.97262 50.2511 9.67003 50.7728 9.81V9.81C51.1828 9.91 51.6728 9.96 52.2428 9.96C52.9328 9.96 53.4328 9.825 53.7428 9.555C54.0528 9.275 54.2078 8.95 54.2078 8.58Z" fill="#3A3A3A"/>
<path d="M65.3432 6.42C65.3432 8.17 65.0082 9.515 64.3382 10.455C63.6782 11.385 62.7632 11.85 61.5932 11.85C60.4232 11.85 59.5032 11.385 58.8332 10.455C58.1732 9.515 57.8432 8.17 57.8432 6.42C57.8432 5.55 57.9282 4.78 58.0982 4.11C58.2782 3.44 58.5332 2.875 58.8632 2.415C59.1932 1.955 59.5882 1.605 60.0482 1.365C60.5082 1.125 61.0232 1.005 61.5932 1.005C62.7632 1.005 63.6782 1.475 64.3382 2.415C65.0082 3.345 65.3432 4.68 65.3432 6.42ZM63.0632 6.42C63.0632 5.9 63.0382 5.43 62.9882 5.01C62.9382 4.58 62.8582 4.21 62.7482 3.9C62.6382 3.59 62.4882 3.35 62.2982 3.18C62.1082 3.01 61.8732 2.925 61.5932 2.925C61.3132 2.925 61.0782 3.01 60.8882 3.18C60.7082 3.35 60.5582 3.59 60.4382 3.9C60.3282 4.21 60.2482 4.58 60.1982 5.01C60.1482 5.43 60.1232 5.9 60.1232 6.42C60.1232 6.94 60.1482 7.415 60.1982 7.845C60.2482 8.275 60.3282 8.645 60.4382 8.955C60.5582 9.265 60.7082 9.505 60.8882 9.675C61.0782 9.845 61.3132 9.93 61.5932 9.93C61.8732 9.93 62.1082 9.845 62.2982 9.675C62.4882 9.505 62.6382 9.265 62.7482 8.955C62.8582 8.645 62.9382 8.275 62.9882 7.845C63.0382 7.415 63.0632 6.94 63.0632 6.42Z" fill="#3A3A3A"/>
<path d="M2 15.5C1.17157 15.5 0.5 16.1716 0.5 17C0.5 17.8284 1.17157 18.5 2 18.5V15.5ZM84 17L69 8.33975V25.6603L84 17ZM2 18.5H70.5V15.5H2V18.5Z" fill="#24A5A4"/>
<path d="M3.81773 24.8949C3.9307 24.8949 4.03853 24.8925 4.14123 24.8876C4.24392 24.8828 4.32608 24.8755 4.3877 24.8658V24.0427C4.34148 24.033 4.27216 24.0232 4.17974 24.0135C4.08731 24.0038 4.00258 23.999 3.92556 23.999C3.81773 23.999 3.71503 24.0062 3.61747 24.0208C3.52505 24.0305 3.44289 24.0524 3.371 24.0864C3.29911 24.1204 3.24263 24.1665 3.20155 24.2248C3.16047 24.283 3.13993 24.3559 3.13993 24.4433C3.13993 24.6133 3.19898 24.7322 3.31708 24.8002C3.44032 24.8633 3.6072 24.8949 3.81773 24.8949ZM3.7253 21.719C4.0642 21.719 4.34662 21.7555 4.57255 21.8283C4.79848 21.9011 4.9782 22.0055 5.11171 22.1415C5.25035 22.2775 5.34791 22.4426 5.40439 22.6368C5.46088 22.8311 5.48912 23.0472 5.48912 23.2851V25.5432C5.3248 25.5772 5.0963 25.616 4.80362 25.6597C4.51093 25.7083 4.15663 25.7326 3.74071 25.7326C3.47883 25.7326 3.24006 25.7107 3.0244 25.667C2.81387 25.6233 2.63158 25.5529 2.47754 25.4558C2.32349 25.3538 2.20539 25.2227 2.12324 25.0624C2.04108 24.9022 2 24.7055 2 24.4724C2 24.249 2.04621 24.0597 2.13864 23.9043C2.2362 23.7489 2.36457 23.625 2.52375 23.5328C2.68293 23.4405 2.86522 23.375 3.07061 23.3361C3.27601 23.2924 3.4891 23.2706 3.7099 23.2706C3.85881 23.2706 3.98975 23.2778 4.10271 23.2924C4.22082 23.3021 4.31581 23.3167 4.3877 23.3361V23.2341C4.3877 23.0496 4.32865 22.9015 4.21055 22.7898C4.09244 22.6781 3.88705 22.6223 3.59437 22.6223C3.39924 22.6223 3.20669 22.6368 3.0167 22.666C2.82671 22.6903 2.66239 22.7267 2.52375 22.7752L2.37741 21.9011C2.44416 21.8817 2.52632 21.8623 2.62388 21.8429C2.72658 21.8186 2.83698 21.7992 2.95508 21.7846C3.07318 21.7652 3.19642 21.7506 3.32479 21.7409C3.45829 21.7263 3.5918 21.719 3.7253 21.719Z" fill="black"/>
<path d="M7.68992 24.873C7.90044 24.873 8.04935 24.8536 8.13665 24.8148C8.22394 24.7759 8.26758 24.7007 8.26758 24.589C8.26758 24.5016 8.2111 24.4263 8.09813 24.3632C7.98517 24.2952 7.81315 24.2199 7.58208 24.1374C7.40236 24.0742 7.23805 24.0087 7.08914 23.9407C6.94536 23.8727 6.82213 23.7926 6.71943 23.7003C6.61674 23.6032 6.53715 23.4891 6.48066 23.358C6.42418 23.2268 6.39594 23.069 6.39594 22.8845C6.39594 22.5251 6.53715 22.2411 6.81956 22.0323C7.10198 21.8234 7.48966 21.719 7.9826 21.719C8.22907 21.719 8.46527 21.7409 8.69121 21.7846C8.91714 21.8234 9.09686 21.8672 9.23037 21.9157L9.03011 22.7607C8.8966 22.717 8.75026 22.6781 8.59108 22.6441C8.43703 22.6101 8.26245 22.5931 8.06733 22.5931C7.70789 22.5931 7.52817 22.6878 7.52817 22.8772C7.52817 22.9209 7.53587 22.9598 7.55127 22.9938C7.56668 23.0277 7.59749 23.0617 7.6437 23.0957C7.68992 23.1249 7.75153 23.1589 7.82856 23.1977C7.91071 23.2317 8.01341 23.2706 8.13665 23.3143C8.38825 23.4017 8.59621 23.4891 8.76053 23.5765C8.92484 23.659 9.05321 23.7513 9.14564 23.8533C9.2432 23.9504 9.30996 24.0597 9.3459 24.1811C9.38698 24.3025 9.40752 24.4433 9.40752 24.6035C9.40752 24.9823 9.25604 25.2688 8.95308 25.4631C8.65526 25.6573 8.23164 25.7544 7.68221 25.7544C7.32277 25.7544 7.02239 25.7253 6.78105 25.667C6.54485 25.6087 6.38053 25.5602 6.28811 25.5213L6.48066 24.64C6.67579 24.7128 6.87604 24.7711 7.08144 24.8148C7.28683 24.8536 7.48966 24.873 7.68992 24.873Z" fill="black"/>
<path d="M13.8716 20C14.0873 20 14.285 20.0219 14.4647 20.0656C14.6444 20.1044 14.7831 20.1433 14.8806 20.1821L14.6573 21.0489C14.5546 21.0052 14.4416 20.9736 14.3184 20.9542C14.2003 20.9299 14.0899 20.9178 13.9872 20.9178C13.8485 20.9178 13.7304 20.9372 13.6329 20.9761C13.5404 21.0101 13.466 21.0586 13.4095 21.1217C13.3581 21.1849 13.3196 21.2601 13.294 21.3476C13.2734 21.435 13.2632 21.5297 13.2632 21.6316V21.821H14.6804V22.7242H13.2632V25.6524H12.1155V21.6171C12.1155 21.1217 12.2619 20.7284 12.5545 20.437C12.8524 20.1457 13.2914 20 13.8716 20Z" fill="black"/>
<path d="M16.8529 24.8949C16.9658 24.8949 17.0737 24.8925 17.1764 24.8876C17.2791 24.8828 17.3612 24.8755 17.4228 24.8658V24.0427C17.3766 24.033 17.3073 24.0232 17.2149 24.0135C17.1225 24.0038 17.0377 23.999 16.9607 23.999C16.8529 23.999 16.7502 24.0062 16.6526 24.0208C16.5602 24.0305 16.478 24.0524 16.4062 24.0864C16.3343 24.1204 16.2778 24.1665 16.2367 24.2248C16.1956 24.283 16.1751 24.3559 16.1751 24.4433C16.1751 24.6133 16.2341 24.7322 16.3522 24.8002C16.4755 24.8633 16.6424 24.8949 16.8529 24.8949ZM16.7605 21.719C17.0994 21.719 17.3818 21.7555 17.6077 21.8283C17.8336 21.9011 18.0134 22.0055 18.1469 22.1415C18.2855 22.2775 18.3831 22.4426 18.4395 22.6368C18.496 22.8311 18.5243 23.0472 18.5243 23.2851V25.5432C18.36 25.5772 18.1315 25.616 17.8388 25.6597C17.5461 25.7083 17.1918 25.7326 16.7759 25.7326C16.514 25.7326 16.2752 25.7107 16.0596 25.667C15.849 25.6233 15.6667 25.5529 15.5127 25.4558C15.3586 25.3538 15.2405 25.2227 15.1584 25.0624C15.0762 24.9022 15.0352 24.7055 15.0352 24.4724C15.0352 24.249 15.0814 24.0597 15.1738 23.9043C15.2714 23.7489 15.3997 23.625 15.5589 23.5328C15.7181 23.4405 15.9004 23.375 16.1058 23.3361C16.3112 23.2924 16.5243 23.2706 16.7451 23.2706C16.894 23.2706 17.0249 23.2778 17.1379 23.2924C17.256 23.3021 17.351 23.3167 17.4228 23.3361V23.2341C17.4228 23.0496 17.3638 22.9015 17.2457 22.7898C17.1276 22.6781 16.9222 22.6223 16.6295 22.6223C16.4344 22.6223 16.2418 22.6368 16.0518 22.666C15.8619 22.6903 15.6975 22.7267 15.5589 22.7752L15.4126 21.9011C15.4793 21.8817 15.5615 21.8623 15.659 21.8429C15.7617 21.8186 15.8721 21.7992 15.9902 21.7846C16.1083 21.7652 16.2316 21.7506 16.3599 21.7409C16.4934 21.7263 16.627 21.719 16.7605 21.719Z" fill="black"/>
<path d="M20.7251 24.873C20.9356 24.873 21.0845 24.8536 21.1718 24.8148C21.2591 24.7759 21.3027 24.7007 21.3027 24.589C21.3027 24.5016 21.2463 24.4263 21.1333 24.3632C21.0203 24.2952 20.8483 24.2199 20.6172 24.1374C20.4375 24.0742 20.2732 24.0087 20.1243 23.9407C19.9805 23.8727 19.8573 23.7926 19.7546 23.7003C19.6519 23.6032 19.5723 23.4891 19.5158 23.358C19.4593 23.2268 19.4311 23.069 19.4311 22.8845C19.4311 22.5251 19.5723 22.2411 19.8547 22.0323C20.1371 21.8234 20.5248 21.719 21.0178 21.719C21.2642 21.719 21.5004 21.7409 21.7264 21.7846C21.9523 21.8234 22.132 21.8672 22.2655 21.9157L22.0653 22.7607C21.9318 22.717 21.7854 22.6781 21.6262 22.6441C21.4722 22.6101 21.2976 22.5931 21.1025 22.5931C20.743 22.5931 20.5633 22.6878 20.5633 22.8772C20.5633 22.9209 20.571 22.9598 20.5864 22.9938C20.6018 23.0277 20.6326 23.0617 20.6789 23.0957C20.7251 23.1249 20.7867 23.1589 20.8637 23.1977C20.9459 23.2317 21.0486 23.2706 21.1718 23.3143C21.4234 23.4017 21.6314 23.4891 21.7957 23.5765C21.96 23.659 22.0884 23.7513 22.1808 23.8533C22.2784 23.9504 22.3451 24.0597 22.3811 24.1811C22.4221 24.3025 22.4427 24.4433 22.4427 24.6035C22.4427 24.9823 22.2912 25.2688 21.9882 25.4631C21.6904 25.6573 21.2668 25.7544 20.7174 25.7544C20.3579 25.7544 20.0575 25.7253 19.8162 25.667C19.58 25.6087 19.4157 25.5602 19.3233 25.5213L19.5158 24.64C19.7109 24.7128 19.9112 24.7711 20.1166 24.8148C20.322 24.8536 20.5248 24.873 20.7251 24.873Z" fill="black"/>
<path d="M23.2618 20.8668L24.4094 20.692V21.821H25.7882V22.7242H24.4094V24.0718C24.4094 24.3 24.4505 24.4821 24.5327 24.6181C24.62 24.7541 24.792 24.8221 25.0487 24.8221C25.172 24.8221 25.2978 24.8123 25.4261 24.7929C25.5597 24.7686 25.6803 24.7371 25.7882 24.6982L25.9499 25.5432C25.8113 25.5966 25.6572 25.6427 25.4878 25.6816C25.3183 25.7204 25.1104 25.7399 24.8639 25.7399C24.5507 25.7399 24.2913 25.701 24.086 25.6233C23.8806 25.5408 23.7162 25.4291 23.593 25.2882C23.4698 25.1426 23.3825 24.9677 23.3311 24.7638C23.2849 24.5598 23.2618 24.334 23.2618 24.0864V20.8668Z" fill="black"/>
<path d="M30.1212 24.8949C30.2342 24.8949 30.342 24.8925 30.4447 24.8876C30.5474 24.8828 30.6296 24.8755 30.6912 24.8658V24.0427C30.645 24.033 30.5756 24.0232 30.4832 24.0135C30.3908 24.0038 30.3061 23.999 30.229 23.999C30.1212 23.999 30.0185 24.0062 29.921 24.0208C29.8285 24.0305 29.7464 24.0524 29.6745 24.0864C29.6026 24.1204 29.5461 24.1665 29.505 24.2248C29.4639 24.283 29.4434 24.3559 29.4434 24.4433C29.4434 24.6133 29.5025 24.7322 29.6206 24.8002C29.7438 24.8633 29.9107 24.8949 30.1212 24.8949ZM30.0288 21.719C30.3677 21.719 30.6501 21.7555 30.876 21.8283C31.102 21.9011 31.2817 22.0055 31.4152 22.1415C31.5538 22.2775 31.6514 22.4426 31.7079 22.6368C31.7644 22.8311 31.7926 23.0472 31.7926 23.2851V25.5432C31.6283 25.5772 31.3998 25.616 31.1071 25.6597C30.8144 25.7083 30.4601 25.7326 30.0442 25.7326C29.7823 25.7326 29.5435 25.7107 29.3279 25.667C29.1173 25.6233 28.9351 25.5529 28.781 25.4558C28.627 25.3538 28.5089 25.2227 28.4267 25.0624C28.3446 24.9022 28.3035 24.7055 28.3035 24.4724C28.3035 24.249 28.3497 24.0597 28.4421 23.9043C28.5397 23.7489 28.6681 23.625 28.8272 23.5328C28.9864 23.4405 29.1687 23.375 29.3741 23.3361C29.5795 23.2924 29.7926 23.2706 30.0134 23.2706C30.1623 23.2706 30.2932 23.2778 30.4062 23.2924C30.5243 23.3021 30.6193 23.3167 30.6912 23.3361V23.2341C30.6912 23.0496 30.6321 22.9015 30.514 22.7898C30.3959 22.6781 30.1905 22.6223 29.8978 22.6223C29.7027 22.6223 29.5102 22.6368 29.3202 22.666C29.1302 22.6903 28.9659 22.7267 28.8272 22.7752L28.6809 21.9011C28.7476 21.8817 28.8298 21.8623 28.9274 21.8429C29.0301 21.8186 29.1405 21.7992 29.2586 21.7846C29.3767 21.7652 29.4999 21.7506 29.6283 21.7409C29.7618 21.7263 29.8953 21.719 30.0288 21.719Z" fill="black"/>
<path d="M33.9934 24.873C34.2039 24.873 34.3528 24.8536 34.4401 24.8148C34.5274 24.7759 34.5711 24.7007 34.5711 24.589C34.5711 24.5016 34.5146 24.4263 34.4016 24.3632C34.2886 24.2952 34.1166 24.2199 33.8856 24.1374C33.7058 24.0742 33.5415 24.0087 33.3926 23.9407C33.2488 23.8727 33.1256 23.7926 33.0229 23.7003C32.9202 23.6032 32.8406 23.4891 32.7841 23.358C32.7277 23.2268 32.6994 23.069 32.6994 22.8845C32.6994 22.5251 32.8406 22.2411 33.123 22.0323C33.4055 21.8234 33.7931 21.719 34.2861 21.719C34.5326 21.719 34.7688 21.7409 34.9947 21.7846C35.2206 21.8234 35.4003 21.8672 35.5338 21.9157L35.3336 22.7607C35.2001 22.717 35.0537 22.6781 34.8946 22.6441C34.7405 22.6101 34.5659 22.5931 34.3708 22.5931C34.0114 22.5931 33.8316 22.6878 33.8316 22.8772C33.8316 22.9209 33.8394 22.9598 33.8548 22.9938C33.8702 23.0277 33.901 23.0617 33.9472 23.0957C33.9934 23.1249 34.055 23.1589 34.132 23.1977C34.2142 23.2317 34.3169 23.2706 34.4401 23.3143C34.6917 23.4017 34.8997 23.4891 35.064 23.5765C35.2283 23.659 35.3567 23.7513 35.4491 23.8533C35.5467 23.9504 35.6134 24.0597 35.6494 24.1811C35.6905 24.3025 35.711 24.4433 35.711 24.6035C35.711 24.9823 35.5595 25.2688 35.2566 25.4631C34.9587 25.6573 34.5351 25.7544 33.9857 25.7544C33.6263 25.7544 33.3259 25.7253 33.0845 25.667C32.8483 25.6087 32.684 25.5602 32.5916 25.5213L32.7841 24.64C32.9793 24.7128 33.1795 24.7711 33.3849 24.8148C33.5903 24.8536 33.7931 24.873 33.9934 24.873Z" fill="black"/>
<path d="M42.0159 21.821C41.7849 22.5591 41.5435 23.2511 41.2919 23.897C41.0403 24.5428 40.7656 25.1693 40.4678 25.7763C40.36 25.9948 40.2521 26.1793 40.1443 26.3299C40.0365 26.4853 39.9184 26.6115 39.79 26.7086C39.6616 26.8106 39.5153 26.8835 39.351 26.9272C39.1918 26.9757 39.0044 27 38.7887 27C38.609 27 38.4421 26.983 38.2881 26.949C38.1391 26.9199 38.0159 26.8859 37.9183 26.847L38.1186 25.9802C38.2367 26.0191 38.342 26.0458 38.4344 26.0604C38.5268 26.0749 38.6244 26.0822 38.7271 26.0822C38.9325 26.0822 39.0891 26.0288 39.1969 25.922C39.3099 25.82 39.4049 25.6767 39.4819 25.4922C39.22 25.0066 38.9582 24.4627 38.6963 23.8606C38.4344 23.2536 38.1879 22.5737 37.9569 21.821H39.1738C39.2252 22.0104 39.2842 22.2168 39.351 22.4402C39.4229 22.6587 39.4973 22.8821 39.5743 23.1103C39.6514 23.3337 39.7284 23.5522 39.8054 23.7659C39.8876 23.9795 39.9646 24.1738 40.0365 24.3486C40.1032 24.1738 40.1725 23.9795 40.2444 23.7659C40.3163 23.5522 40.3856 23.3337 40.4524 23.1103C40.5243 22.8821 40.591 22.6587 40.6526 22.4402C40.7194 22.2168 40.7785 22.0104 40.8298 21.821H42.0159Z" fill="black"/>
<path d="M46.3154 23.7294C46.3154 24.0305 46.2692 24.3073 46.1767 24.5598C46.0843 24.8075 45.9508 25.0212 45.7762 25.2008C45.6016 25.3757 45.3911 25.5116 45.1446 25.6087C44.9033 25.7059 44.6311 25.7544 44.3282 25.7544C44.0304 25.7544 43.7582 25.7059 43.5117 25.6087C43.2704 25.5116 43.0624 25.3757 42.8879 25.2008C42.7133 25.0212 42.5772 24.8075 42.4796 24.5598C42.3821 24.3073 42.3333 24.0305 42.3333 23.7294C42.3333 23.4284 42.3821 23.154 42.4796 22.9063C42.5823 22.6587 42.721 22.4475 42.8956 22.2726C43.0753 22.0978 43.2858 21.9618 43.5272 21.8647C43.7736 21.7676 44.0406 21.719 44.3282 21.719C44.6209 21.719 44.8879 21.7676 45.1292 21.8647C45.3757 21.9618 45.5862 22.0978 45.7608 22.2726C45.9354 22.4475 46.0715 22.6587 46.169 22.9063C46.2666 23.154 46.3154 23.4284 46.3154 23.7294ZM45.1446 23.7294C45.1446 23.3944 45.0727 23.1322 44.929 22.9428C44.7903 22.7485 44.5901 22.6514 44.3282 22.6514C44.0663 22.6514 43.8635 22.7485 43.7197 22.9428C43.5759 23.1322 43.504 23.3944 43.504 23.7294C43.504 24.0645 43.5759 24.3316 43.7197 24.5307C43.8635 24.7249 44.0663 24.8221 44.3282 24.8221C44.5901 24.8221 44.7903 24.7249 44.929 24.5307C45.0727 24.3316 45.1446 24.0645 45.1446 23.7294Z" fill="black"/>
<path d="M50.6627 25.5213C50.4676 25.5747 50.216 25.6233 49.9079 25.667C49.5998 25.7156 49.2763 25.7399 48.9374 25.7399C48.5933 25.7399 48.3058 25.6962 48.0747 25.6087C47.8488 25.5213 47.6691 25.3999 47.5356 25.2445C47.4021 25.0843 47.3071 24.8949 47.2506 24.6764C47.1941 24.4579 47.1659 24.2175 47.1659 23.9553V21.821H48.3135V23.8241C48.3135 24.1738 48.3623 24.4263 48.4598 24.5817C48.5574 24.7371 48.7397 24.8148 49.0067 24.8148C49.0889 24.8148 49.1761 24.8123 49.2686 24.8075C49.361 24.7978 49.4432 24.7881 49.515 24.7784V21.821H50.6627V25.5213Z" fill="black"/>
<path d="M53.3978 23.7367C53.3978 23.4599 53.444 23.2001 53.5364 22.9573C53.634 22.7097 53.7726 22.496 53.9523 22.3163C54.132 22.1318 54.3503 21.9861 54.607 21.8793C54.8638 21.7725 55.1564 21.719 55.4851 21.719C55.7007 21.719 55.8984 21.7385 56.0781 21.7773C56.2579 21.8113 56.4325 21.8623 56.6019 21.9303L56.3631 22.7971C56.2553 22.7582 56.1372 22.7242 56.0088 22.6951C55.8805 22.666 55.7367 22.6514 55.5775 22.6514C55.2386 22.6514 54.9844 22.751 54.815 22.9501C54.6507 23.1492 54.5685 23.4114 54.5685 23.7367C54.5685 24.0815 54.6455 24.3486 54.7996 24.538C54.9588 24.7274 55.2335 24.8221 55.6237 24.8221C55.7624 24.8221 55.9113 24.8099 56.0704 24.7856C56.2296 24.7614 56.376 24.7225 56.5095 24.6691L56.6712 25.5578C56.5377 25.6112 56.3708 25.6573 56.1706 25.6961C55.9703 25.735 55.7495 25.7544 55.5082 25.7544C55.1385 25.7544 54.8201 25.7034 54.5531 25.6015C54.2861 25.4946 54.0653 25.3514 53.8907 25.1717C53.7213 24.992 53.5955 24.7808 53.5133 24.538C53.4363 24.2903 53.3978 24.0232 53.3978 23.7367Z" fill="black"/>
<path d="M58.794 24.8949C58.907 24.8949 59.0148 24.8925 59.1175 24.8876C59.2202 24.8828 59.3024 24.8755 59.364 24.8658V24.0427C59.3178 24.033 59.2485 24.0232 59.156 24.0135C59.0636 24.0038 58.9789 23.999 58.9019 23.999C58.794 23.999 58.6913 24.0062 58.5938 24.0208C58.5013 24.0305 58.4192 24.0524 58.3473 24.0864C58.2754 24.1204 58.2189 24.1665 58.1779 24.2248C58.1368 24.283 58.1162 24.3559 58.1162 24.4433C58.1162 24.6133 58.1753 24.7322 58.2934 24.8002C58.4166 24.8633 58.5835 24.8949 58.794 24.8949ZM58.7016 21.719C59.0405 21.719 59.3229 21.7555 59.5489 21.8283C59.7748 21.9011 59.9545 22.0055 60.088 22.1415C60.2266 22.2775 60.3242 22.4426 60.3807 22.6368C60.4372 22.8311 60.4654 23.0472 60.4654 23.2851V25.5432C60.3011 25.5772 60.0726 25.616 59.7799 25.6597C59.4872 25.7083 59.1329 25.7326 58.717 25.7326C58.4551 25.7326 58.2164 25.7107 58.0007 25.667C57.7902 25.6233 57.6079 25.5529 57.4538 25.4558C57.2998 25.3538 57.1817 25.2227 57.0995 25.0624C57.0174 24.9022 56.9763 24.7055 56.9763 24.4724C56.9763 24.249 57.0225 24.0597 57.1149 23.9043C57.2125 23.7489 57.3409 23.625 57.5001 23.5328C57.6592 23.4405 57.8415 23.375 58.0469 23.3361C58.2523 23.2924 58.4654 23.2706 58.6862 23.2706C58.8351 23.2706 58.966 23.2778 59.079 23.2924C59.1971 23.3021 59.2921 23.3167 59.364 23.3361V23.2341C59.364 23.0496 59.3049 22.9015 59.1868 22.7898C59.0687 22.6781 58.8633 22.6223 58.5707 22.6223C58.3755 22.6223 58.183 22.6368 57.993 22.666C57.803 22.6903 57.6387 22.7267 57.5001 22.7752L57.3537 21.9011C57.4205 21.8817 57.5026 21.8623 57.6002 21.8429C57.7029 21.8186 57.8133 21.7992 57.9314 21.7846C58.0495 21.7652 58.1727 21.7506 58.3011 21.7409C58.4346 21.7263 58.5681 21.719 58.7016 21.719Z" fill="black"/>
<path d="M61.5032 21.9521C61.6983 21.8987 61.9499 21.8502 62.258 21.8065C62.5661 21.7579 62.8896 21.7336 63.2285 21.7336C63.5725 21.7336 63.8575 21.7773 64.0834 21.8647C64.3145 21.9473 64.4968 22.0663 64.6303 22.2216C64.7638 22.377 64.8588 22.5616 64.9153 22.7752C64.9718 22.9889 65 23.2268 65 23.4891V25.6524H63.8524V23.6202C63.8524 23.2706 63.8036 23.0229 63.706 22.8772C63.6085 22.7315 63.4262 22.6587 63.1592 22.6587C63.077 22.6587 62.9897 22.6635 62.8973 22.6733C62.8049 22.6781 62.7227 22.6854 62.6508 22.6951V25.6524H61.5032V21.9521Z" fill="black"/>
</svg>
