<svg width="54" height="27" viewBox="0 0 54 27" fill="none" xmlns="http://www.w3.org/2000/svg">
<circle cx="14" cy="17" r="8" fill="#D9D9D9"/>
<path d="M9.51764 26.3372C9.2334 26.5318 8.84209 26.6431 8.65581 26.3533V26.3533C8.54419 26.1797 8.48837 25.9006 8.48837 25.5161C8.48837 24.6355 8.66202 23.7301 9.0093 22.7999C9.36899 21.8572 9.84651 20.865 10.4419 19.8231C10.7308 19.3218 11.0366 18.8051 11.3593 18.273C11.8399 17.4802 11.276 16.4557 10.3488 16.4557V16.4557C9.95194 16.4557 9.62946 16.4929 9.3814 16.5673C9.14574 16.6293 8.95349 16.7595 8.80465 16.958C8.77958 16.9922 8.75493 17.0297 8.7307 17.0706C8.48822 17.4797 8.10232 17.8322 7.63256 17.758V17.758V17.758C7.24818 17.6726 7.06772 17.2639 7.13064 16.8752C7.15057 16.7521 7.16904 16.6247 7.18605 16.4929C7.23566 16.1084 7.27287 15.7115 7.29767 15.3022V15.3022C7.3378 14.62 7.89859 14.071 8.5817 14.0875C8.65538 14.0893 8.72969 14.0911 8.80465 14.0929C9.32558 14.0929 9.97674 14.0929 10.7581 14.0929C11.1922 14.0929 11.5953 14.0929 11.9674 14.0929C12.3395 14.0929 12.7116 14.0929 13.0837 14.0929C13.2977 14.086 13.5232 14.0791 13.7603 14.0722C14.1339 14.0613 14.5237 14.2127 14.6093 14.5766V14.5766V14.5766C14.7269 14.9529 14.5831 15.3456 14.3682 15.6761C14.1695 15.9816 13.9708 16.2973 13.7721 16.6231C13.462 17.1192 13.1829 17.5967 12.9349 18.0557C12.6868 18.5146 12.4822 18.9239 12.3209 19.2836C12.1349 19.7177 11.9736 20.1394 11.8372 20.5487C11.7008 20.9456 11.5891 21.3735 11.5023 21.8324C11.4279 22.2789 11.3721 22.7999 11.3349 23.3952C11.3191 23.6474 11.3067 23.9196 11.2976 24.2118C11.2736 24.9848 10.757 25.6452 10.0698 25.9999V25.9999C9.87077 26.109 9.68673 26.2214 9.51764 26.3372Z" fill="#3A3A3A"/>
<path d="M16.0067 17.3541C16.2533 17.5191 16.3167 17.8544 16.1472 18.098L15.6681 18.7871C15.3592 19.2502 15.2048 19.5774 15.2048 19.7687C15.2065 19.7987 15.211 19.8265 15.2184 19.8521C15.2899 20.1008 15.6196 20.2202 15.6372 20.4784V20.4784V20.4784C15.6554 20.7464 15.4232 20.958 15.1547 20.9508C15.0471 20.948 14.9351 20.9465 14.8187 20.9465C14.5201 20.9465 14.2679 20.9465 14.062 20.9465C13.8663 20.9465 13.6501 20.9465 13.4133 20.9465C13.3382 20.9465 13.2625 20.9476 13.1863 20.9496C12.9173 20.9567 12.6843 20.7454 12.7184 20.4784V20.4784V20.4784C12.7523 20.2135 13.0142 20.0826 13.2551 19.9673C13.2668 19.9617 13.2783 19.9559 13.2898 19.9499C13.4339 19.8693 13.5987 19.7284 13.784 19.527C13.9693 19.3257 14.2061 19.0186 14.4944 18.6059L15.2773 17.4903C15.443 17.2542 15.7669 17.1937 16.0067 17.3541V17.3541ZM16.5947 19.0287C16.4711 18.8475 16.3579 18.6814 16.2549 18.5304C16.1783 18.4105 16.0875 18.2767 15.9824 18.129C15.9082 18.0248 15.8114 17.9388 15.7002 17.8755V17.8755C15.5677 17.7998 15.4568 17.6917 15.3751 17.5628C15.1947 17.2779 15.0041 16.9964 14.8032 16.7182C14.5664 16.3659 14.3451 16.0588 14.1392 15.797C13.9539 15.5554 13.7994 15.3742 13.6759 15.2534C13.5523 15.1326 13.4339 15.047 13.3207 14.9967V14.9967C13.0863 14.8717 12.8293 14.7317 12.7956 14.4681V14.4681V14.4681C12.7631 14.2138 12.9776 14.008 13.2339 14.0162C13.3815 14.0208 13.5391 14.0255 13.7068 14.0302C14.0671 14.0302 14.4326 14.0302 14.8032 14.0302C15.1842 14.0302 15.5703 14.0302 15.9615 14.0302C16.1565 14.0252 16.3399 14.0202 16.5119 14.0151C16.7767 14.0074 16.9969 14.2202 16.9653 14.4832V14.4832V14.4832C16.9504 14.7301 16.7055 14.8411 16.5084 14.9906C16.4638 15.0244 16.4359 15.0667 16.4248 15.1175C16.3939 15.2584 16.5174 15.5252 16.7954 15.9178C16.8984 16.0689 17.0065 16.2199 17.1197 16.3709C17.1955 16.4719 17.2758 16.5864 17.3607 16.7144C17.447 16.8443 17.5645 16.9508 17.7046 17.0193V17.0193C17.8276 17.0794 17.9341 17.1686 18.0149 17.2792C18.1798 17.505 18.3447 17.7307 18.5096 17.9565C18.7155 18.2384 18.9009 18.5002 19.0656 18.7418C19.2921 19.0841 19.4774 19.3509 19.6215 19.5421C19.7657 19.7233 19.8995 19.8492 20.0231 19.9197C20.0337 19.9253 20.0444 19.9307 20.0552 19.936C20.2959 20.0533 20.5454 20.2113 20.5636 20.4784V20.4784V20.4784C20.6014 20.7375 20.3721 20.9435 20.1103 20.9417C20.0112 20.941 19.9151 20.9426 19.8223 20.9465C19.5855 20.9465 19.2921 20.9465 18.942 20.9465C18.767 20.9465 18.5611 20.9465 18.3243 20.9465C18.0978 20.9465 17.8559 20.9465 17.5985 20.9465C17.3514 20.9465 17.1146 20.9465 16.8881 20.9465C16.8788 20.947 16.8696 20.9474 16.8605 20.9478C16.583 20.9609 16.3428 20.7403 16.363 20.4633V20.4633V20.4633C16.3957 20.2235 16.6281 20.0985 16.815 19.9447C16.8592 19.9083 16.8887 19.8647 16.9035 19.814C16.9447 19.673 16.8418 19.4113 16.5947 19.0287ZM17.3647 17.3854C17.1569 17.2221 17.1104 16.9261 17.2579 16.7069L17.7992 15.9027C18.036 15.5403 18.1544 15.2886 18.1544 15.1477C18.1544 15.1111 18.1454 15.0782 18.1274 15.0491C17.992 14.8306 17.6928 14.7382 17.6602 14.4832V14.4832V14.4832C17.6268 14.2213 17.8496 14.0098 18.1134 14.0215C18.1786 14.0244 18.2437 14.0273 18.3089 14.0302C18.5354 14.0302 18.8031 14.0302 19.1119 14.0302C19.4208 14.0302 19.6679 14.0302 19.8532 14.0302C19.8866 14.0284 19.9204 14.0266 19.9545 14.0248C20.2187 14.0107 20.4435 14.2234 20.3937 14.4832V14.4832C20.3935 14.4849 20.3933 14.4866 20.393 14.4882C20.3587 14.7364 20.1284 14.8798 19.8995 14.9816V14.9816C19.7966 15.0319 19.6833 15.1225 19.5598 15.2534C19.4362 15.3843 19.2818 15.5806 19.0965 15.8423L18.0898 17.2784C17.9236 17.5155 17.5923 17.5644 17.3647 17.3854V17.3854Z" fill="#24A5A4"/>
<path d="M23 14.4037C23 14.1584 23.1779 13.9494 23.42 13.9101L23.7481 13.8569C24.0522 13.8076 24.3281 14.0424 24.3281 14.3504V14.6538C24.3281 14.93 24.552 15.1538 24.8281 15.1538H25.4237C25.6998 15.1538 25.9237 15.3777 25.9237 15.6538V15.7667C25.9237 16.0428 25.6998 16.2667 25.4237 16.2667H24.8281C24.552 16.2667 24.3281 16.4905 24.3281 16.7667V17.9269C24.3281 18.2081 24.3757 18.4325 24.4707 18.6C24.5718 18.7675 24.7708 18.8513 25.068 18.8513C25.2106 18.8513 25.3562 18.8393 25.5047 18.8154V18.8154C25.7266 18.7724 25.9607 18.9048 26.0007 19.1273L26.0393 19.342C26.081 19.574 25.9555 19.8062 25.7286 19.8702C25.679 19.8842 25.6282 19.8975 25.576 19.9103C25.3799 19.9581 25.1393 19.9821 24.854 19.9821C24.4915 19.9821 24.1915 19.9342 23.9538 19.8385C23.7161 19.7368 23.5259 19.5991 23.3833 19.4256C23.2407 19.2462 23.1396 19.0308 23.0802 18.7795C23.0267 18.5282 23 18.25 23 17.9449V14.4037Z" fill="#3A3A3A"/>
<path d="M31.2166 17.5051C31.2166 17.8761 31.1631 18.2171 31.0562 18.5282C30.9492 18.8333 30.7947 19.0966 30.5926 19.3179C30.3906 19.5333 30.147 19.7009 29.8617 19.8205C29.5824 19.9402 29.2675 20 28.9169 20C28.5722 20 28.2573 19.9402 27.972 19.8205C27.6928 19.7009 27.4521 19.5333 27.25 19.3179C27.048 19.0966 26.8905 18.8333 26.7776 18.5282C26.6647 18.2171 26.6083 17.8761 26.6083 17.5051C26.6083 17.1342 26.6647 16.7962 26.7776 16.491C26.8965 16.1859 27.0569 15.9256 27.259 15.7103C27.4669 15.4949 27.7106 15.3274 27.9899 15.2077C28.2751 15.088 28.5841 15.0282 28.9169 15.0282C29.2556 15.0282 29.5646 15.088 29.8439 15.2077C30.1291 15.3274 30.3728 15.4949 30.5748 15.7103C30.7769 15.9256 30.9343 16.1859 31.0472 16.491C31.1601 16.7962 31.2166 17.1342 31.2166 17.5051ZM29.8617 17.5051C29.8617 17.0923 29.7785 16.7692 29.6121 16.5359C29.4517 16.2966 29.22 16.1769 28.9169 16.1769C28.6138 16.1769 28.3791 16.2966 28.2127 16.5359C28.0463 16.7692 27.9631 17.0923 27.9631 17.5051C27.9631 17.9179 28.0463 18.247 28.2127 18.4923C28.3791 18.7316 28.6138 18.8513 28.9169 18.8513C29.22 18.8513 29.4517 18.7316 29.6121 18.4923C29.7785 18.247 29.8617 17.9179 29.8617 17.5051Z" fill="#3A3A3A"/>
<path d="M37.6313 18.5192C37.5165 18.158 36.9663 18.1567 36.8558 18.5192V18.5192C36.7582 18.8542 36.6557 19.1909 36.5481 19.5292C36.4826 19.7353 36.2906 19.8744 36.0743 19.8744H35.7335C35.533 19.8744 35.3514 19.7549 35.2776 19.5685C35.207 19.3898 35.1329 19.1926 35.0553 18.9769C34.9305 18.6299 34.7998 18.253 34.6631 17.8462C34.5324 17.4333 34.3957 16.9996 34.2531 16.5449C34.1785 16.2935 34.1048 16.0413 34.032 15.7881C33.9405 15.4699 34.1802 15.1538 34.5113 15.1538H34.8497C35.0843 15.1538 35.2876 15.3169 35.3364 15.5464C35.358 15.6481 35.3802 15.7536 35.4029 15.8628C35.4623 16.1141 35.5218 16.3744 35.5812 16.6436C35.6466 16.9128 35.7119 17.185 35.7773 17.4603V17.4603C35.8373 17.6868 36.1479 17.6876 36.2069 17.4608C36.2093 17.4516 36.2117 17.4425 36.2141 17.4333C36.2913 17.1581 36.3626 16.8889 36.428 16.6256C36.4993 16.3564 36.5647 16.0991 36.6241 15.8538C36.6517 15.7477 36.6777 15.6447 36.7022 15.545C36.758 15.3171 36.9605 15.1538 37.1951 15.1538H37.3544C37.5891 15.1538 37.7919 15.317 37.8446 15.5456C37.8675 15.6452 37.8915 15.7479 37.9166 15.8538C37.976 16.0991 38.0384 16.3564 38.1037 16.6256C38.1691 16.8889 38.2374 17.1581 38.3088 17.4333C38.3111 17.4425 38.3135 17.4516 38.3159 17.4608C38.3749 17.6876 38.6855 17.6868 38.7455 17.4603V17.4603C38.8168 17.185 38.8822 16.9128 38.9416 16.6436C39.007 16.3744 39.0664 16.1141 39.1199 15.8628C39.1452 15.7534 39.1694 15.6477 39.1925 15.5458C39.2445 15.317 39.4474 15.1538 39.682 15.1538H40.0026C40.3337 15.1538 40.5734 15.4699 40.4802 15.7876C40.4059 16.0409 40.3298 16.2933 40.2519 16.5449C40.1152 16.9996 39.9786 17.4333 39.8419 17.8462C39.7112 18.253 39.5804 18.6299 39.4497 18.9769C39.3721 19.1926 39.298 19.3898 39.2274 19.5685C39.1536 19.7549 38.9719 19.8744 38.7715 19.8744H38.4307C38.2144 19.8744 38.0226 19.7353 37.9558 19.5295C37.846 19.1911 37.7378 18.8543 37.6313 18.5192V18.5192Z" fill="#3A3A3A"/>
<path d="M42.7048 19.3744C42.7048 19.6505 42.4809 19.8744 42.2048 19.8744H41.8766C41.6005 19.8744 41.3766 19.6505 41.3766 19.3744V15.6538C41.3766 15.3777 41.6005 15.1538 41.8766 15.1538H42.2048C42.4809 15.1538 42.7048 15.3777 42.7048 15.6538V19.3744ZM42.8296 13.7897C42.8296 14.035 42.7493 14.2295 42.5889 14.3731C42.4344 14.5107 42.2502 14.5795 42.0362 14.5795C41.8223 14.5795 41.6351 14.5107 41.4747 14.3731C41.3202 14.2295 41.2429 14.035 41.2429 13.7897C41.2429 13.5444 41.3202 13.353 41.4747 13.2154C41.6351 13.0718 41.8223 13 42.0362 13C42.2502 13 42.4344 13.0718 42.5889 13.2154C42.7493 13.353 42.8296 13.5444 42.8296 13.7897Z" fill="#3A3A3A"/>
<path d="M43.9532 15.6905C43.9532 15.4682 44.0998 15.2715 44.3174 15.226C44.469 15.1943 44.6388 15.1643 44.8268 15.1359C45.1833 15.0761 45.5577 15.0462 45.9499 15.0462C46.348 15.0462 46.6778 15.1 46.9393 15.2077C47.2067 15.3094 47.4176 15.456 47.5721 15.6474C47.7266 15.8389 47.8366 16.0662 47.9019 16.3295C47.9673 16.5927 48 16.8859 48 17.209V19.3744C48 19.6505 47.7761 19.8744 47.5 19.8744H47.1719C46.8957 19.8744 46.6719 19.6505 46.6719 19.3744V17.3705C46.6719 16.9397 46.6154 16.6346 46.5025 16.4551C46.3896 16.2756 46.1787 16.1859 45.8696 16.1859C45.7746 16.1859 45.6736 16.1919 45.5666 16.2038V16.2038C45.4024 16.213 45.2814 16.3529 45.2814 16.5174V19.3744C45.2814 19.6505 45.0575 19.8744 44.7814 19.8744H44.4532C44.1771 19.8744 43.9532 19.6505 43.9532 19.3744V15.6905Z" fill="#3A3A3A"/>
<path d="M3.48 9.855C3.81 9.855 4.08 9.83 4.29 9.78C4.51 9.72 4.685 9.645 4.815 9.555C4.945 9.455 5.035 9.34 5.085 9.21C5.135 9.08 5.16 8.935 5.16 8.775C5.16 8.435 5 8.155 4.68 7.935C4.36 7.705 3.81 7.46 3.03 7.2C2.69 7.08 2.35 6.945 2.01 6.795C1.67 6.635 1.365 6.44 1.095 6.21C0.825 5.97 0.605 5.685 0.435 5.355C0.265 5.015 0.18 4.605 0.18 4.125C0.18 3.645 0.27 3.215 0.45 2.835C0.63 2.445 0.885 2.115 1.215 1.845C1.545 1.575 1.945 1.37 2.415 1.23C2.885 1.08 3.415 1.005 4.005 1.005C4.705 1.005 5.31 1.08 5.82 1.23C5.99152 1.28045 6.15285 1.33259 6.30401 1.38643C6.76289 1.54987 6.95617 2.06348 6.7888 2.52094L6.76629 2.58248C6.57459 3.10644 5.96357 3.34304 5.43 3.18V3.18C5.08 3.06 4.655 3 4.155 3C3.595 3 3.19 3.08 2.94 3.24C2.7 3.39 2.58 3.625 2.58 3.945C2.58 4.135 2.625 4.295 2.715 4.425C2.805 4.555 2.93 4.675 3.09 4.785C3.26 4.885 3.45 4.98 3.66 5.07C3.88 5.15 4.12 5.235 4.38 5.325C4.92 5.525 5.39 5.725 5.79 5.925C6.19 6.115 6.52 6.34 6.78 6.6C7.05 6.86 7.25 7.165 7.38 7.515C7.51 7.865 7.575 8.29 7.575 8.79C7.575 9.76 7.235 10.515 6.555 11.055C5.875 11.585 4.85 11.85 3.48 11.85C3.02 11.85 2.605 11.82 2.235 11.76C1.865 11.71 1.535 11.645 1.245 11.565C0.965 11.485 0.72 11.4 0.51 11.31V11.31C0.2089 11.1745 0.080335 10.8286 0.190751 10.5174L0.274364 10.2818C0.476561 9.71197 1.14791 9.4513 1.72368 9.6359C1.74889 9.64398 1.77433 9.65202 1.8 9.66C2.26 9.79 2.82 9.855 3.48 9.855Z" fill="#3A3A3A"/>
<path d="M8.85047 7.755C8.85047 7.055 8.95547 6.445 9.16547 5.925C9.38547 5.395 9.67047 4.955 10.0205 4.605C10.3705 4.255 10.7705 3.99 11.2205 3.81C11.6805 3.63 12.1505 3.54 12.6305 3.54C13.7505 3.54 14.6355 3.885 15.2855 4.575C15.9355 5.255 16.2605 6.26 16.2605 7.59C16.2605 7.72 16.2555 7.865 16.2455 8.025V8.025C16.2302 8.25404 16.0389 8.43 15.8094 8.43H12.2601C11.665 8.43 11.1925 9.00482 11.6358 9.40178C11.6839 9.44484 11.7355 9.48592 11.7905 9.525C12.1705 9.795 12.6805 9.93 13.3205 9.93C13.7305 9.93 14.1305 9.895 14.5205 9.825V9.825C15.0262 9.72385 15.5773 10.0352 15.6614 10.5441L15.7118 10.8486C15.7615 11.1497 15.6077 11.4473 15.3155 11.535V11.535C15.1155 11.595 14.8905 11.645 14.6405 11.685C14.4005 11.735 14.1405 11.775 13.8605 11.805C13.5805 11.835 13.3005 11.85 13.0205 11.85C12.3105 11.85 11.6905 11.745 11.1605 11.535C10.6405 11.325 10.2055 11.04 9.85547 10.68C9.51547 10.31 9.26047 9.875 9.09047 9.375C8.93047 8.875 8.85047 8.335 8.85047 7.755ZM13.5339 6.9C13.8419 6.9 14.0929 6.63716 13.9955 6.345V6.345C13.9455 6.165 13.8605 6.005 13.7405 5.865C13.6305 5.725 13.4855 5.61 13.3055 5.52C13.1355 5.43 12.9205 5.385 12.6605 5.385C12.4105 5.385 12.1955 5.43 12.0155 5.52C11.8355 5.6 11.6855 5.71 11.5655 5.85C11.4455 5.99 11.3505 6.155 11.2805 6.345V6.345C11.1855 6.62985 11.417 6.9 11.7173 6.9H13.5339Z" fill="#3A3A3A"/>
<path d="M20.7428 11.64C20.3669 11.64 20.0216 11.4298 19.8578 11.0915C19.4353 10.2194 19.0062 9.23219 18.5702 8.13C18.1938 7.15998 17.8305 6.12707 17.4803 5.03128C17.2766 4.39414 17.7571 3.75 18.426 3.75H18.6793C19.1359 3.75 19.5338 4.05949 19.6542 4.49996C19.7006 4.66959 19.7493 4.8446 19.8002 5.025C19.9402 5.475 20.0802 5.935 20.2202 6.405C20.3702 6.865 20.5152 7.315 20.6552 7.755V7.755C20.7974 8.17193 21.3681 8.17193 21.5102 7.755V7.755C21.6602 7.315 21.8052 6.865 21.9452 6.405C22.0952 5.935 22.2352 5.475 22.3652 5.025C22.4203 4.84411 22.4723 4.66862 22.5211 4.49856C22.6472 4.05969 23.0446 3.75 23.5012 3.75H23.6945C24.3634 3.75 24.8439 4.39415 24.6392 5.03096C24.2869 6.12687 23.9189 7.15988 23.5352 8.13C23.1076 9.23211 22.6832 10.2192 22.2623 11.0913C22.0989 11.4299 21.7536 11.64 21.3777 11.64H20.7428Z" fill="#3A3A3A"/>
<path d="M29.4273 1.125C30.9873 1.125 32.1823 1.405 33.0123 1.965C33.8423 2.515 34.2573 3.375 34.2573 4.545C34.2573 5.275 34.0873 5.87 33.7473 6.33C33.6125 6.51384 33.4526 6.68182 33.2678 6.83395C32.8375 7.188 32.6551 7.83347 32.9673 8.295V8.295C33.1973 8.625 33.4223 8.975 33.6423 9.345C33.8723 9.705 34.0923 10.085 34.3023 10.485V10.485C34.5875 11.0146 34.194 11.64 33.5925 11.64H32.849C32.4868 11.64 32.1531 11.4439 31.9748 11.1285C31.8769 10.9553 31.7777 10.7808 31.6773 10.605C31.4873 10.255 31.2873 9.915 31.0773 9.585C30.8773 9.255 30.6773 8.945 30.4773 8.655C30.3537 8.46965 30.2302 8.29575 30.1066 8.13331C29.9653 7.94751 29.7423 7.845 29.5089 7.845V7.845C29.0745 7.845 28.7223 8.19717 28.7223 8.63158V10.64C28.7223 11.1923 28.2746 11.64 27.7223 11.64H27.3823C26.83 11.64 26.3823 11.1923 26.3823 10.64V2.21796C26.3823 1.73986 26.7204 1.32466 27.1944 1.26277C27.4453 1.23001 27.6996 1.20409 27.9573 1.185C28.5073 1.145 28.9973 1.125 29.4273 1.125ZM29.5623 3.12C29.3923 3.12 29.2373 3.125 29.0973 3.135V3.135C28.8853 3.15131 28.7223 3.32856 28.7223 3.5412V5.325C28.7223 5.68951 29.0178 5.985 29.3823 5.985V5.985C30.2623 5.985 30.8923 5.875 31.2723 5.655C31.6523 5.435 31.8423 5.06 31.8423 4.53C31.8423 4.02 31.6473 3.66 31.2573 3.45C30.8773 3.23 30.3123 3.12 29.5623 3.12Z" fill="#3A3A3A"/>
<path d="M43.2363 7.68C43.2363 8.3 43.1463 8.87 42.9663 9.39C42.7863 9.9 42.5263 10.34 42.1863 10.71C41.8463 11.07 41.4363 11.35 40.9563 11.55C40.4863 11.75 39.9563 11.85 39.3663 11.85C38.7863 11.85 38.2563 11.75 37.7763 11.55C37.3063 11.35 36.9013 11.07 36.5613 10.71C36.2213 10.34 35.9563 9.9 35.7663 9.39C35.5763 8.87 35.4813 8.3 35.4813 7.68C35.4813 7.06 35.5763 6.495 35.7663 5.985C35.9663 5.475 36.2363 5.04 36.5763 4.68C36.9263 4.32 37.3363 4.04 37.8063 3.84C38.2863 3.64 38.8063 3.54 39.3663 3.54C39.9363 3.54 40.4563 3.64 40.9263 3.84C41.4063 4.04 41.8163 4.32 42.1563 4.68C42.4963 5.04 42.7613 5.475 42.9513 5.985C43.1413 6.495 43.2363 7.06 43.2363 7.68ZM40.9563 7.68C40.9563 6.99 40.8163 6.45 40.5363 6.06C40.2663 5.66 39.8763 5.46 39.3663 5.46C38.8563 5.46 38.4613 5.66 38.1813 6.06C37.9013 6.45 37.7613 6.99 37.7613 7.68C37.7613 8.37 37.9013 8.92 38.1813 9.33C38.4613 9.73 38.8563 9.93 39.3663 9.93C39.8763 9.93 40.2663 9.73 40.5363 9.33C40.8163 8.92 40.9563 8.37 40.9563 7.68Z" fill="#3A3A3A"/>
<path d="M48.2556 10.982C48.1762 11.447 47.7682 11.7948 47.2999 11.7385C47.0073 11.7033 46.7498 11.6504 46.5277 11.58C46.1277 11.45 45.8077 11.27 45.5677 11.04C45.3377 10.8 45.1777 10.515 45.0877 10.185C45.0077 9.845 44.9677 9.465 44.9677 9.045V1.21182C44.9677 0.720916 45.324 0.302606 45.8086 0.224541L46.0436 0.186688C46.6515 0.0887715 47.2027 0.558228 47.2027 1.17396V8.595C47.2027 8.795 47.2177 8.975 47.2477 9.135C47.2777 9.295 47.3327 9.43 47.4127 9.54C47.5027 9.65 47.6277 9.74 47.7877 9.81V9.81C48.1128 9.95227 48.381 10.2476 48.3213 10.5975L48.2556 10.982Z" fill="#3A3A3A"/>
<path d="M53.0017 10.982C52.9223 11.447 52.5143 11.7948 52.046 11.7385C51.7534 11.7033 51.4959 11.6504 51.2738 11.58C50.8738 11.45 50.5538 11.27 50.3138 11.04C50.0838 10.8 49.9238 10.515 49.8338 10.185C49.7538 9.845 49.7137 9.465 49.7137 9.045V1.21182C49.7137 0.720916 50.0701 0.302606 50.5547 0.224541L50.7897 0.186688C51.3976 0.0887715 51.9487 0.558228 51.9487 1.17396V8.595C51.9487 8.795 51.9638 8.975 51.9938 9.135C52.0238 9.295 52.0787 9.43 52.1587 9.54C52.2487 9.65 52.3737 9.74 52.5337 9.81V9.81C52.8589 9.95227 53.1271 10.2476 53.0673 10.5975L53.0017 10.982Z" fill="#3A3A3A"/>
</svg>
