<svg width="130" height="130" viewBox="0 0 130 130" fill="none" xmlns="http://www.w3.org/2000/svg">
<path d="M65 0.666667C57.6362 0.666666 51.6667 6.6362 51.6667 14C51.6667 21.3638 57.6362 27.3333 65 27.3333C72.3638 27.3333 78.3333 21.3638 78.3333 14C78.3333 6.6362 72.3638 0.666667 65 0.666667ZM65 102.667C57.6362 102.667 51.6667 108.636 51.6667 116C51.6667 123.364 57.6362 129.333 65 129.333C72.3638 129.333 78.3333 123.364 78.3333 116C78.3333 108.636 72.3638 102.667 65 102.667ZM62.5 14L62.5 116L67.5 116L67.5 14L62.5 14Z" fill="#424242"/>
<path d="M0.666667 65C0.666667 72.3638 6.6362 78.3333 14 78.3333C21.3638 78.3333 27.3333 72.3638 27.3333 65C27.3333 57.6362 21.3638 51.6667 14 51.6667C6.6362 51.6667 0.666667 57.6362 0.666667 65ZM102.667 65C102.667 72.3638 108.636 78.3333 116 78.3333C123.364 78.3333 129.333 72.3638 129.333 65C129.333 57.6362 123.364 51.6667 116 51.6667C108.636 51.6667 102.667 57.6362 102.667 65ZM14 67.5H116V62.5L14 62.5V67.5Z" fill="#424242"/>
<path d="M19.5094 19.5094C14.3024 24.7164 14.3024 33.1586 19.5094 38.3656C24.7164 43.5726 33.1586 43.5726 38.3656 38.3656C43.5726 33.1586 43.5726 24.7164 38.3656 19.5094C33.1586 14.3024 24.7164 14.3024 19.5094 19.5094ZM91.6343 91.6343C86.4273 96.8413 86.4273 105.283 91.6343 110.49C96.8413 115.697 105.283 115.697 110.49 110.49C115.697 105.283 115.697 96.8413 110.49 91.6343C105.283 86.4273 96.8413 86.4273 91.6343 91.6343ZM27.1697 30.7053L99.2946 102.83L102.83 99.2946L30.7053 27.1697L27.1697 30.7053Z" fill="#949494"/>
<path d="M19.5094 110.491C24.7164 115.698 33.1586 115.698 38.3656 110.491C43.5726 105.284 43.5726 96.8414 38.3656 91.6344C33.1586 86.4274 24.7164 86.4274 19.5094 91.6344C14.3024 96.8414 14.3024 105.284 19.5094 110.491ZM91.6343 38.3657C96.8413 43.5727 105.283 43.5727 110.49 38.3657C115.697 33.1587 115.697 24.7165 110.49 19.5095C105.283 14.3025 96.8413 14.3025 91.6343 19.5095C86.4273 24.7165 86.4273 33.1587 91.6343 38.3657ZM30.7053 102.83L102.83 30.7054L99.2946 27.1698L27.1697 99.2947L30.7053 102.83Z" fill="#949494"/>
<circle cx="64.5" cy="64.5" r="8.5" fill="#D9D9D9"/>
</svg>